Coordinates
version=1
nRows=14
nColumns=40
inDegrees=yes

Units are S.I. units (second, meters, Newtons, ...)
If the header above contains a line with 'inDegrees', this indicates whether rotational values are in degrees (yes) or radians (no).

endheader
time	pelvis_tilt	pelvis_list	pelvis_rotation	pelvis_tx	pelvis_ty	pelvis_tz	hip_flexion_r	hip_adduction_r	hip_rotation_r	knee_angle_r	knee_angle_r_beta	ankle_angle_r	subtalar_angle_r	mtp_angle_r	hip_flexion_l	hip_adduction_l	hip_rotation_l	knee_angle_l	knee_angle_l_beta	ankle_angle_l	subtalar_angle_l	mtp_angle_l	lumbar_extension	lumbar_bending	lumbar_rotation	arm_flex_r	arm_add_r	arm_rot_r	elbow_flex_r	pro_sup_r	wrist_flex_r	wrist_dev_r	arm_flex_l	arm_add_l	arm_rot_l	elbow_flex_l	pro_sup_l	wrist_flex_l	wrist_dev_l
      4.27500000	    -18.72509771	     14.43661280	     -3.11964174	     -4.17942029	      0.90499988	      0.29325327	    -15.38340785	    -12.34980445	     -5.25785048	     16.48430744	      0.28770544	    -29.91546058	      0.00000000	      0.00000000	     70.43478948	      6.70974730	     -7.20858737	     87.63135476	      1.52945567	     21.05877513	      0.00000000	      0.00000000	    -19.47322322	    -18.50295796	      5.54243870	     31.20771071	    -15.36823576	     31.49366071	    124.47848836	     87.95289479	      0.00000000	      0.00000000	    -56.63360496	    -33.82729630	    -17.48499327	    117.23741042	      1.40796557	      0.00000000	      0.00000000
      4.28000000	    -18.48723637	     14.14796756	     -2.52721977	     -4.15235413	      0.90676542	      0.29326736	    -16.37563675	    -11.65211587	     -3.73579995	     16.99302474	      0.29658423	    -31.59968297	      0.00000000	      0.00000000	     69.91718340	      6.91262917	     -7.29083220	     84.10955685	      1.46798870	     20.98903555	      0.00000000	      0.00000000	    -19.83541989	    -18.27425493	      5.23900638	     30.28267141	    -15.90818330	     31.64717410	    123.71273128	     88.09578157	      0.00000000	      0.00000000	    -56.54155586	    -33.82171653	    -17.54152986	    117.65289353	      1.36951337	      0.00000000	      0.00000000
      4.28500000	    -17.79318576	     14.02635876	     -1.88419373	     -4.12503014	      0.90933095	      0.29319884	    -17.62994173	    -11.07966125	     -2.61360630	     18.07051711	      0.31539002	    -32.47684819	      0.00000000	      0.00000000	     68.63970474	      7.40310843	     -7.51200428	     80.37673703	      1.40283870	     20.84175234	      0.00000000	      0.00000000	    -20.81319929	    -18.15406421	      4.69915061	     29.22919163	    -16.35725234	     31.47265561	    122.69776851	     88.08695424	      0.00000000	      0.00000000	    -56.01079756	    -33.93044608	    -17.38440259	    117.99147740	      1.41334945	      0.00000000	      0.00000000
      4.29000000	    -17.24958307	     13.58338046	     -1.28902116	     -4.09803358	      0.91161325	      0.29321774	    -18.26653952	    -10.12911913	     -1.19792110	     19.98803658	      0.34885705	    -32.64929893	      0.00000000	      0.00000000	     67.35208896	      7.63466480	     -7.48980297	     76.72488814	      1.33910192	     20.53439896	      0.00000000	      0.00000000	    -21.61425117	    -17.68369412	      4.39229158	     27.93365068	    -16.81622862	     31.03934237	    121.48279614	     88.11997636	      0.00000000	      0.00000000	    -55.04194806	    -34.01255135	    -16.89051570	    118.21473912	      1.38590610	      0.00000000	      0.00000000
      4.29500000	    -16.54075270	     13.05423530	     -0.76499759	     -4.07108985	      0.91411740	      0.29330570	    -18.74085382	     -9.06375221	      0.09526879	     22.49993314	      0.39269791	    -32.46110627	      0.00000000	      0.00000000	     65.70284184	      7.78108230	     -7.43911515	     73.11055696	      1.27601994	     20.09925232	      0.00000000	      0.00000000	    -22.60515588	    -17.09700639	      4.17636086	     26.50692850	    -17.26183264	     30.36892272	    120.07230913	     88.12488582	      0.00000000	      0.00000000	    -53.62634077	    -34.13095828	    -16.09354975	    118.32693912	      1.37819922	      0.00000000	      0.00000000
      4.30000000	    -15.71883098	     12.67740023	     -0.10471072	     -4.04400024	      0.91669278	      0.29292021	    -19.11030285	     -8.13870348	      0.69987416	     25.53321824	      0.44563873	    -31.96396967	      0.00000000	      0.00000000	     63.74633467	      8.21146932	     -7.40354873	     69.47665223	      1.21259633	     19.50710563	      0.00000000	      0.00000000	    -23.77828735	    -16.55253213	      3.78591698	     24.88761914	    -17.62718164	     29.38964318	    118.47610787	     88.12672677	      0.00000000	      0.00000000	    -51.86449556	    -34.28041137	    -15.04142702	    118.36767862	      1.41313356	      0.00000000	      0.00000000
      4.30500000	    -14.86758719	     12.10430342	      0.42918661	     -4.01717878	      0.91914487	      0.29266753	    -19.14128537	     -7.03849531	      1.29306605	     29.11814265	      0.50820746	    -31.23776234	      0.00000000	      0.00000000	     61.64877072	      8.36908136	     -7.26565647	     66.04107930	      1.15263428	     18.74716210	      0.00000000	      0.00000000	    -24.94791051	    -15.80420469	      3.63828145	     23.14721376	    -17.96871409	     28.14084730	    116.75774995	     88.12541194	      0.00000000	      0.00000000	    -49.68959495	    -34.40776543	    -13.66495734	    118.32528018	      1.41329475	      0.00000000	      0.00000000
      4.31000000	    -13.99482073	     11.51712229	      0.93137872	     -3.99046785	      0.92140785	      0.29216414	    -18.92428213	     -6.00315806	      1.50721506	     33.11442719	      0.57795578	    -30.51126978	      0.00000000	      0.00000000	     59.41941065	      8.48820949	     -7.09400110	     62.76653482	      1.09548269	     17.88858540	      0.00000000	      0.00000000	    -26.12904095	    -14.99088427	      3.52940700	     21.32681300	    -18.27324106	     26.68372914	    114.92507279	     88.13056051	      0.00000000	      0.00000000	    -47.23368935	    -34.44272487	    -12.03866876	    118.19978108	      1.40101122	      0.00000000	      0.00000000
      4.31500000	    -13.11551108	     10.85493637	      1.48364034	     -3.96398262	      0.92344331	      0.29143550	    -18.49867338	     -4.95272809	      1.37335022	     37.39335541	      0.65263717	    -29.72605960	      0.00000000	      0.00000000	     57.11777538	      8.56902292	     -6.79053727	     59.71823835	      1.04227988	     16.82975394	      0.00000000	      0.00000000	    -27.30143336	    -14.02642877	      3.37311008	     19.56123906	    -18.51972267	     25.20303141	    112.90798933	     88.09327597	      0.00000000	      0.00000000	    -44.54145077	    -34.32459913	    -10.34175091	    118.03087378	      1.39765121	      0.00000000	      0.00000000
      4.32000000	    -12.20426996	     10.45457327	      1.82898633	     -3.93745600	      0.92535038	      0.29071606	    -17.88191065	     -4.39704173	      0.91292658	     41.94221183	      0.73202969	    -28.99524266	      0.00000000	      0.00000000	     54.63012073	      8.62503855	     -6.80616369	     56.75291589	      0.99052524	     15.86865470	      0.00000000	      0.00000000	    -28.50381395	    -13.38325084	      3.56035930	     17.37575583	    -18.75198294	     23.03569848	    111.07877612	     88.15449315	      0.00000000	      0.00000000	    -41.34944396	    -34.42062000	     -8.11879749	    117.76132632	      1.41132151	      0.00000000	      0.00000000
      4.32500000	    -11.34688131	      9.89472537	      2.30439163	     -3.91126481	      0.92681051	      0.28959556	    -17.05980044	     -3.74899624	      0.23067924	     46.61324876	      0.81355467	    -28.17568553	      0.00000000	      0.00000000	     52.20097524	      8.63713514	     -6.56881912	     54.13430567	      0.94482187	     14.72887987	      0.00000000	      0.00000000	    -29.63447551	    -12.47199053	      3.51777975	     15.42028237	    -18.91087687	     21.05760097	    109.09207379	     88.13176103	      0.00000000	      0.00000000	    -38.19666897	    -34.16904098	     -5.99131959	    117.48179225	      1.42008705	      0.00000000	      0.00000000
      4.33000000	    -10.51539366	      9.32387392	      2.73703317	     -3.88535673	      0.92794608	      0.28838842	    -16.03024849	     -3.21453153	     -0.52147197	     51.41939845	      0.89743780	    -27.30782311	      0.00000000	      0.00000000	     49.75249652	      8.54998564	     -6.34136519	     51.76087414	      0.90339768	     13.71605004	      0.00000000	      0.00000000	    -30.71309658	    -11.53248424	      3.55837300	     13.45346128	    -19.07246604	     18.96015271	    107.13655215	     88.15547524	      0.00000000	      0.00000000	    -34.83920846	    -33.79640959	     -3.74404000	    117.16161218	      1.42100046	      0.00000000	      0.00000000
      4.33500000	     -9.76927061	      8.70324135	      3.33103829	     -3.85967129	      0.92853129	      0.28697724	    -14.83340023	     -2.69161583	     -1.47098286	     56.22035817	      0.98123036	    -26.11166156	      0.00000000	      0.00000000	     47.41386494	      8.45069220	     -5.99738833	     49.77938899	      0.86881424	     12.65861058	      0.00000000	      0.00000000	    -31.69629943	    -10.46778537	      3.27395895	     11.66840583	    -19.05188970	     16.99490662	    105.09334818	     88.16435000	      0.00000000	      0.00000000	    -31.71336548	    -33.19457112	     -1.71372455	    116.96377499	      1.39645455	      0.00000000	      0.00000000
      4.34000000	     -9.09695587	      8.08841928	      3.81652458	     -3.83424521	      0.92879086	      0.28555975	    -13.38854566	     -2.29773962	     -2.31106840	     61.09064079	      1.06623282	    -24.75857692	      0.00000000	      0.00000000	     45.07830389	      8.22254906	     -5.71435555	     47.98814361	      0.83755111	     12.02459324	      0.00000000	      0.00000000	    -32.56035176	     -9.43973816	      3.25758900	      9.72342254	    -19.23321482	     14.82244487	    103.28957018	     88.14710703	      0.00000000	      0.00000000	    -28.29311534	    -32.60701981	      0.47575050	    116.62426874	      1.41122210	      0.00000000	      0.00000000
